<?xml version="1.0" standalone="no"?>
<!DOCTYPE svg PUBLIC "-//W3C//DTD SVG 20010904//EN"
 "http://www.w3.org/TR/2001/REC-SVG-20010904/DTD/svg10.dtd">
<svg version="1.0" xmlns="http://www.w3.org/2000/svg"
 width="500.000000pt" height="500.000000pt" viewBox="0 0 500.000000 500.000000"
 preserveAspectRatio="xMidYMid meet">

<g transform="translate(0.000000,500.000000) scale(0.100000,-0.100000)"
fill="#000000" stroke="none">
<path d="M0 2500 l0 -2500 2500 0 2500 0 0 2500 0 2500 -2500 0 -2500 0 0
-2500z m2653 969 c96 -20 213 -84 287 -158 114 -114 180 -286 165 -428 l-7
-63 31 0 c26 0 31 -4 31 -25 0 -14 5 -25 10 -25 6 0 10 11 10 25 l0 26 279 -3
c319 -3 312 -2 363 -94 24 -42 28 -60 28 -134 0 -141 -42 -190 -164 -190 l-60
0 34 -35 c32 -33 37 -35 102 -35 66 0 68 -1 68 -25 0 -14 5 -25 10 -25 6 0 10
-27 10 -60 l0 -60 -85 0 c-111 0 -134 12 -260 139 -68 69 -107 101 -122 101
-23 0 -23 -2 -23 -120 l0 -120 -58 0 c-31 0 -72 4 -90 9 -20 6 -32 6 -32 0 0
-10 -86 -12 -142 -3 l-38 7 0 113 0 114 -59 0 -60 0 -21 -56 c-11 -31 -27
-100 -35 -153 -9 -53 -22 -125 -30 -161 -7 -36 -14 -112 -15 -169 -1 -124 -9
-147 -84 -230 -31 -35 -56 -68 -56 -72 0 -24 -67 -49 -128 -49 -77 0 -108 15
-146 72 -16 24 -51 61 -78 83 -27 22 -53 50 -58 62 -5 13 -9 81 -9 153 0 71
-5 138 -10 148 -5 10 -14 54 -21 99 -22 164 -77 308 -139 367 l-31 30 0 -182
0 -182 -52 0 c-29 0 -70 3 -90 6 l-38 7 0 296 c0 285 1 298 20 319 12 12 25
22 31 22 6 0 7 5 4 11 -15 24 -6 198 14 256 70 207 262 368 481 403 62 10 186
5 263 -11z m-913 -669 c29 -15 47 -34 65 -70 24 -48 25 -54 25 -267 0 -199 -2
-221 -19 -247 -36 -54 -45 -55 -316 -56 -137 0 -267 3 -287 6 l-38 7 0 323 0
324 265 0 c247 0 269 -1 305 -20z m-845 -1380 c21 -18 -3 -52 -26 -39 -44 23
-86 -2 -75 -45 7 -30 37 -41 67 -26 17 10 24 9 38 -5 15 -15 15 -17 -4 -28
-55 -33 -116 -23 -140 23 -27 53 -16 98 33 125 29 16 85 14 107 -5z m214 -6
c57 -47 36 -133 -36 -153 -85 -24 -156 67 -107 137 33 47 98 54 143 16z m166
-24 c20 -27 39 -50 41 -50 3 0 4 15 3 33 -3 57 0 67 21 67 19 0 20 -7 20 -90
0 -89 0 -90 -24 -90 -17 0 -31 10 -45 34 -36 58 -47 61 -46 10 1 -40 -1 -44
-22 -44 -22 0 -23 3 -23 90 0 82 2 90 19 90 12 0 34 -20 56 -50z m293 28 c-2
-15 -11 -24 -25 -26 -21 -3 -23 -9 -23 -68 l0 -64 -30 0 c-26 0 -30 3 -29 28
4 77 -1 102 -20 102 -23 0 -35 15 -27 35 4 11 24 15 81 15 73 0 76 -1 73 -22z
m189 -1 c18 -18 20 -71 3 -92 -9 -10 -7 -20 5 -39 l17 -26 -31 0 c-24 0 -34 6
-43 25 -6 14 -17 25 -25 25 -7 0 -13 -11 -13 -25 0 -20 -5 -25 -25 -25 -25 0
-25 1 -25 91 l0 91 60 -4 c38 -3 67 -10 77 -21z m214 6 c81 -48 45 -166 -51
-166 -70 0 -115 63 -89 125 22 53 87 72 140 41z m149 -53 l0 -70 40 0 c33 0
40 -3 40 -20 0 -18 -7 -20 -65 -20 l-65 0 0 90 c0 89 0 90 25 90 24 0 25 -2
25 -70z m270 50 c0 -20 -21 -26 -72 -21 -10 1 -18 -4 -18 -13 0 -12 10 -16 40
-16 33 0 40 -3 40 -20 0 -17 -7 -20 -40 -20 -29 0 -40 -4 -40 -15 0 -11 12
-15 45 -15 38 0 45 -3 45 -20 0 -18 -7 -20 -70 -20 l-70 0 0 90 0 90 70 0 c63
0 70 -2 70 -20z m288 -2 c-3 -20 -8 -23 -40 -20 -33 3 -38 1 -38 -17 0 -18 6
-21 41 -21 33 0 40 -3 37 -17 -2 -13 -14 -19 -41 -21 -34 -3 -37 -6 -37 -33 0
-24 -4 -29 -25 -29 -25 0 -25 1 -25 90 l0 90 66 0 c62 0 65 -1 62 -22z m110
-70 l3 -88 -31 0 -30 0 0 83 c0 46 3 87 7 91 4 4 16 6 28 4 18 -3 20 -11 23
-90z m139 41 l38 -50 3 51 c3 46 5 51 25 48 20 -3 22 -9 25 -90 3 -88 3 -88
-22 -88 -18 0 -35 13 -61 46 l-35 47 0 -47 c0 -42 -2 -46 -25 -46 -25 0 -25 1
-25 90 0 83 2 90 20 90 12 0 34 -20 57 -51z m293 -25 c17 -41 34 -82 37 -90 4
-10 -3 -14 -21 -14 -15 0 -29 7 -32 15 -4 10 -20 15 -45 15 -28 0 -39 -4 -39
-15 0 -10 -10 -15 -30 -15 l-29 0 30 68 c17 37 35 77 40 90 5 14 17 22 33 22
21 0 29 -11 56 -76z m173 25 l37 -52 0 52 c0 48 2 51 25 51 25 0 25 -1 25 -90
0 -89 0 -90 -24 -90 -18 0 -34 13 -58 46 l-33 47 -3 -47 c-3 -41 -6 -46 -28
-46 -24 0 -24 1 -24 90 0 87 1 90 23 90 15 0 34 -16 60 -51z m293 30 c24 -20
-1 -38 -45 -32 -33 5 -41 2 -51 -16 -6 -12 -8 -31 -5 -41 8 -25 50 -36 71 -19
12 10 18 9 32 -4 15 -16 15 -18 -3 -32 -30 -22 -101 -19 -125 5 -43 43 -38
109 13 141 34 21 86 20 113 -2z m202 -1 c-3 -20 -8 -22 -45 -20 -33 3 -43 0
-43 -12 0 -10 12 -16 42 -18 31 -2 44 -8 46 -20 3 -15 -4 -18 -42 -18 -34 0
-46 -4 -46 -15 0 -11 12 -15 50 -15 43 0 50 -3 50 -20 0 -18 -7 -20 -75 -20
l-75 0 0 90 0 90 71 0 c67 0 70 -1 67 -22z m122 -68 c0 -89 0 -90 -25 -90 -25
0 -25 1 -25 90 0 89 0 90 25 90 25 0 25 -1 25 -90z m174 80 c15 -5 32 -21 38
-36 10 -22 9 -31 -5 -56 -15 -27 -15 -31 -1 -54 16 -24 16 -24 -13 -24 -22 0
-33 7 -41 25 -6 14 -18 25 -27 25 -9 0 -15 -9 -15 -25 0 -20 -5 -25 -25 -25
-25 0 -25 1 -25 90 l0 90 44 0 c25 0 56 -4 70 -10z m264 -25 c44 -52 21 -126
-45 -144 -89 -25 -158 64 -107 137 34 49 112 52 152 7z"/>
<path d="M2369 3429 c-208 -49 -388 -225 -430 -419 -16 -77 -7 -190 17 -203
11 -5 99 -89 197 -186 l177 -175 2 189 c1 105 1 209 0 231 -5 90 64 144 182
144 109 -1 178 -64 160 -149 -9 -43 -6 -85 7 -89 5 -2 9 -48 9 -103 l0 -99
118 0 119 0 36 53 c34 49 37 59 37 125 0 70 0 71 28 74 26 3 27 5 30 73 2 39
-2 95 -8 125 -13 57 -71 183 -91 195 -6 4 -3 -7 6 -25 9 -18 15 -42 13 -54 -3
-12 1 -28 9 -34 19 -18 16 -56 -6 -76 -10 -9 -35 -20 -56 -23 l-37 -6 7 50 c8
61 -21 132 -84 208 -22 27 -41 53 -41 57 0 26 87 -8 151 -58 19 -14 8 -1 -24
30 -64 62 -187 127 -275 145 -61 13 -200 13 -253 0z"/>
<path d="M2896 3208 c15 -51 24 -68 34 -68 16 0 12 19 -11 56 -24 39 -33 44
-23 12z"/>
<path d="M2422 2928 c3 -21 9 -23 82 -26 87 -3 115 9 82 34 -13 9 -45 14 -94
14 -70 0 -73 -1 -70 -22z"/>
<path d="M2379 2846 c6 -16 19 -22 57 -26 41 -4 49 -9 52 -27 5 -31 22 -29 22
2 0 24 3 25 54 25 47 0 56 3 61 21 10 30 1 33 -45 15 -49 -20 -89 -20 -157 -2
-51 14 -51 14 -44 -8z"/>
<path d="M2413 2773 c9 -2 23 -2 30 0 6 3 -1 5 -18 5 -16 0 -22 -2 -12 -5z"/>
<path d="M2552 2713 l2 -68 3 62 c3 54 7 62 26 66 18 4 17 5 -5 6 l-28 1 2
-67z"/>
<path d="M3098 2773 c7 -3 16 -2 19 1 4 3 -2 6 -13 5 -11 0 -14 -3 -6 -6z"/>
<path d="M3222 2493 l3 -288 2 282 3 283 253 3 252 2 -257 3 -258 2 2 -287z"/>
<path d="M1882 2488 l2 -283 6 265 c3 146 9 273 14 283 6 12 4 17 -8 17 -14 0
-16 -29 -14 -282z"/>
<path d="M2361 2583 c-1 -118 3 -194 9 -198 12 -8 12 341 0 370 -5 12 -9 -55
-9 -172z"/>
<path d="M3040 2601 l0 -60 -42 -4 -43 -4 48 -1 47 -2 0 65 c0 36 -2 65 -5 65
-3 0 -5 -27 -5 -59z"/>
<path d="M3360 2610 l0 -40 155 0 155 0 0 40 0 40 -155 0 -155 0 0 -40z"/>
<path d="M3710 2595 l0 -55 -177 -3 -178 -2 183 -3 182 -2 0 60 c0 33 -2 60
-5 60 -3 0 -5 -25 -5 -55z"/>
<path d="M2553 2520 c0 -30 2 -43 4 -27 2 15 2 39 0 55 -2 15 -4 2 -4 -28z"/>
<path d="M2743 2533 c32 -2 81 -2 110 0 29 2 3 3 -58 3 -60 0 -84 -1 -52 -3z"/>
<path d="M2690 2280 l0 -120 -49 0 c-43 0 -49 -2 -44 -19 8 -30 100 -44 120
-18 5 6 15 47 22 90 7 43 20 102 29 130 14 46 17 49 20 24 2 -15 -4 -59 -12
-97 -9 -38 -16 -91 -15 -117 0 -39 4 -28 19 58 10 58 25 124 33 147 l15 42
-69 0 -69 0 0 -120z"/>
<path d="M3044 2305 c0 -55 1 -76 3 -47 2 29 2 74 0 100 -2 26 -3 2 -3 -53z"/>
<path d="M2194 2335 c14 -36 46 -199 46 -233 0 -24 3 -31 12 -25 7 4 40 17 73
28 52 17 60 24 63 48 2 16 -1 27 -9 27 -6 0 -52 39 -102 88 -49 48 -87 78 -83
67z"/>
<path d="M2553 2260 c0 -30 2 -43 4 -27 2 15 2 39 0 55 -2 15 -4 2 -4 -28z"/>
<path d="M3748 2283 c12 -2 30 -2 40 0 9 3 -1 5 -23 4 -22 0 -30 -2 -17 -4z"/>
<path d="M2501 2208 c0 -9 -8 -23 -16 -32 -19 -18 -9 -46 16 -46 20 0 22 13 9
65 -4 17 -8 22 -9 13z"/>
<path d="M2420 2151 c0 -6 5 -13 10 -16 6 -3 10 1 10 9 0 9 -4 16 -10 16 -5 0
-10 -4 -10 -9z"/>
<path d="M2604 2074 c-3 -11 -10 -27 -15 -37 -9 -16 -7 -18 13 -12 51 16 90
55 54 55 -8 0 -21 3 -30 6 -10 4 -18 -1 -22 -12z"/>
<path d="M2308 2069 c-60 -23 -40 -48 56 -68 46 -10 181 -23 154 -15 -31 9
-19 24 20 25 53 1 29 8 -58 17 -64 6 -76 10 -85 30 -11 24 -40 28 -87 11z"/>
<path d="M2655 2019 c-64 -26 -70 -33 -20 -24 57 11 123 46 83 44 -7 0 -35 -9
-63 -20z"/>
<path d="M2314 1914 c4 -15 2 -32 -5 -40 -10 -12 -8 -16 9 -21 25 -6 29 -21 7
-29 -21 -8 -19 -18 8 -29 15 -7 22 -19 22 -37 0 -15 6 -32 12 -39 9 -9 9 -16
2 -25 -23 -28 99 -69 148 -49 15 6 12 9 -16 18 -44 15 -53 37 -14 37 15 0 35
5 43 10 11 7 -2 10 -42 10 -43 0 -58 4 -58 14 0 9 16 16 43 20 66 10 81 26 25
26 -58 0 -110 18 -88 29 8 5 38 12 65 16 l50 8 -40 8 c-22 4 -59 8 -81 8 -24
1 -47 7 -54 16 -10 13 -9 15 11 15 37 0 102 21 93 29 -10 8 -106 31 -131 31
-11 0 -14 -6 -9 -26z"/>
<path d="M1212 2493 l3 -288 2 282 3 283 253 3 252 2 -257 3 -258 2 2 -287z"/>
<path d="M1347 2643 c-3 -5 -5 -77 -6 -160 l0 -153 159 0 160 0 0 160 0 160
-154 0 c-85 0 -157 -3 -159 -7z"/>
<path d="M1690 2470 l0 -180 -172 -3 -173 -3 180 1 180 0 3 183 c2 119 -1 182
-8 182 -6 0 -10 -64 -10 -180z"/>
<path d="M1009 1369 c-16 -30 3 -69 34 -69 29 0 47 17 47 45 0 45 -60 63 -81
24z"/>
<path d="M1670 1375 c0 -20 5 -25 24 -25 33 0 44 20 21 37 -28 20 -45 16 -45
-12z"/>
<path d="M1881 1368 c-17 -45 39 -89 68 -54 7 8 11 27 9 43 -2 23 -8 29 -36
31 -26 3 -34 -1 -41 -20z"/>
<path d="M3151 1351 c-10 -18 -9 -21 9 -21 22 0 25 7 11 29 -7 11 -11 9 -20
-8z"/>
<path d="M4120 1376 c0 -21 5 -26 25 -26 14 0 28 7 32 15 7 19 5 22 -30 30
-24 6 -27 5 -27 -19z"/>
<path d="M4342 1378 c-28 -28 -7 -78 33 -78 27 0 45 18 45 45 0 27 -18 45 -45
45 -12 0 -26 -5 -33 -12z"/>
</g>
</svg>
